<?xml version="1.0" encoding="UTF-8"?>
<svg xmlns="http://www.w3.org/2000/svg" xmlns:xlink="http://www.w3.org/1999/xlink" width="411.4pt" height="87.7pt" viewBox="0 0 411.4 87.7" version="1.1">
<defs>
<clipPath id="clip1">
  <path d="M 290 34 L 411.398438 34 L 411.398438 64 L 290 64 Z M 290 34 "/>
</clipPath>
<clipPath id="clip2">
  <path d="M 0 0 L 87 0 L 87 87.699219 L 0 87.699219 Z M 0 0 "/>
</clipPath>
</defs>
<g id="surface1">
<path style=" stroke:none;fill-rule:evenodd;fill:rgb(0%,66.209412%,90.234375%);fill-opacity:1;" d="M 97.914063 37.441406 L 97.914063 48.074219 L 101.953125 48.074219 C 104.203125 48.074219 105.863281 47.648438 106.9375 46.789063 C 108.007813 45.933594 108.539063 44.613281 108.539063 42.824219 C 108.539063 40.964844 107.996094 39.597656 106.921875 38.734375 C 105.84375 37.878906 104.109375 37.441406 101.726563 37.441406 Z M 95.164063 34.695313 L 101.089844 34.695313 C 102.789063 34.695313 104.148438 34.789063 105.171875 34.964844 C 106.191406 35.140625 107.039063 35.429688 107.714844 35.832031 C 108.941406 36.566406 109.882813 37.527344 110.539063 38.714844 C 111.199219 39.886719 111.523438 41.222656 111.523438 42.699219 C 111.523438 44.105469 111.230469 45.40625 110.636719 46.59375 C 110.039063 47.792969 109.21875 48.738281 108.15625 49.4375 C 107.414063 49.9375 106.53125 50.300781 105.503906 50.523438 C 104.476563 50.746094 103.164063 50.859375 101.574219 50.859375 L 97.914063 50.859375 L 97.914063 62.589844 L 95.164063 62.589844 Z M 112.101563 62.589844 L 109.203125 62.589844 L 120.03125 34.695313 L 123.324219 34.695313 L 134.113281 62.589844 L 131.183594 62.589844 L 127.851563 53.839844 L 115.433594 53.839844 Z M 126.890625 51.332031 L 121.601563 37.324219 L 116.390625 51.332031 Z M 158.441406 41.914063 C 157.191406 40.175781 155.789063 38.898438 154.242188 38.085938 C 152.699219 37.265625 150.933594 36.855469 148.953125 36.855469 C 145.855469 36.855469 143.199219 38.003906 140.996094 40.304688 C 138.789063 42.605469 137.691406 45.339844 137.691406 48.511719 C 137.691406 51.882813 138.789063 54.726563 140.976563 57.035156 C 143.164063 59.351563 145.824219 60.507813 148.953125 60.507813 C 150.882813 60.507813 152.628906 60.101563 154.183594 59.296875 C 155.742188 58.488281 157.09375 57.285156 158.246094 55.683594 L 161.496094 55.683594 C 160.226563 58.054688 158.511719 59.894531 156.367188 61.195313 C 154.222656 62.488281 151.816406 63.136719 149.152344 63.136719 C 145.050781 63.136719 141.632813 61.738281 138.890625 58.945313 C 136.152344 56.148438 134.785156 52.65625 134.785156 48.472656 C 134.785156 46.515625 135.160156 44.667969 135.898438 42.914063 C 136.636719 41.167969 137.722656 39.59375 139.152344 38.1875 C 140.480469 36.859375 141.972656 35.851563 143.621094 35.171875 C 145.28125 34.488281 147.070313 34.148438 148.996094 34.148438 C 151.773438 34.148438 154.261719 34.820313 156.480469 36.171875 C 158.695313 37.527344 160.449219 39.441406 161.734375 41.914063 Z M 168.367188 53.984375 L 168.367188 62.589844 L 165.660156 62.589844 L 165.660156 34.695313 L 168.367188 34.695313 L 168.367188 50.191406 L 181.269531 34.695313 L 184.527344 34.695313 L 173.269531 48.183594 L 184.328125 62.589844 L 180.964844 62.589844 L 171.503906 50.230469 Z M 186.097656 62.589844 L 183.199219 62.589844 L 194.027344 34.695313 L 197.320313 34.695313 L 208.109375 62.589844 L 205.179688 62.589844 L 201.847656 53.839844 L 189.429688 53.839844 Z M 200.882813 51.332031 L 195.597656 37.324219 L 190.386719 51.332031 Z M 219.921875 49.214844 L 237.261719 49.214844 C 237.03125 53.269531 235.570313 56.605469 232.871094 59.21875 C 230.179688 61.832031 226.871094 63.136719 222.953125 63.136719 C 218.9375 63.136719 215.570313 61.730469 212.855469 58.925781 C 210.144531 56.113281 208.78125 52.628906 208.78125 48.472656 C 208.78125 46.515625 209.15625 44.667969 209.894531 42.914063 C 210.632813 41.167969 211.71875 39.59375 213.148438 38.1875 C 214.53125 36.820313 216.054688 35.808594 217.726563 35.140625 C 219.402344 34.480469 221.257813 34.148438 223.304688 34.148438 C 226.011719 34.148438 228.4375 34.800781 230.585938 36.113281 C 232.742188 37.421875 234.46875 39.292969 235.769531 41.71875 L 232.398438 41.71875 C 231.078125 40.042969 229.671875 38.808594 228.175781 38.011719 C 226.671875 37.214844 224.996094 36.8125 223.140625 36.8125 C 219.9375 36.8125 217.222656 37.960938 215.007813 40.253906 C 212.789063 42.542969 211.6875 45.300781 211.6875 48.515625 C 211.6875 51.9375 212.789063 54.792969 214.996094 57.085938 C 217.210938 59.363281 219.9375 60.507813 223.179688 60.507813 C 225.734375 60.507813 228.023438 59.691406 230.050781 58.050781 C 232.078125 56.414063 233.390625 54.289063 234.007813 51.679688 L 219.921875 51.679688 Z M 243.820313 47.214844 L 255.546875 47.214844 L 255.546875 49.960938 L 243.820313 49.960938 L 243.820313 59.878906 L 255.546875 59.878906 L 255.546875 62.589844 L 241.074219 62.589844 L 241.074219 34.695313 L 255.546875 34.695313 L 255.546875 37.441406 L 243.820313 37.441406 Z M 259.273438 54.628906 L 261.902344 54.628906 C 261.953125 56.347656 262.445313 57.714844 263.371094 58.742188 C 264.300781 59.761719 265.523438 60.273438 267.035156 60.273438 C 268.664063 60.273438 269.953125 59.761719 270.90625 58.753906 C 271.859375 57.734375 272.335938 56.355469 272.335938 54.628906 C 272.335938 52.09375 270.382813 50.183594 266.464844 48.894531 C 266.160156 48.792969 265.929688 48.71875 265.773438 48.667969 C 263.734375 47.964844 262.269531 47.070313 261.367188 45.992188 C 260.472656 44.914063 260.019531 43.507813 260.019531 41.769531 C 260.019531 39.546875 260.714844 37.730469 262.097656 36.3125 C 263.484375 34.890625 265.269531 34.1875 267.46875 34.1875 C 269.558594 34.1875 271.21875 34.835938 272.449219 36.121094 C 273.671875 37.410156 274.359375 39.226563 274.496094 41.558594 L 271.90625 41.558594 C 271.769531 40.042969 271.3125 38.878906 270.546875 38.050781 C 269.78125 37.226563 268.746094 36.8125 267.460938 36.8125 C 266.078125 36.8125 264.953125 37.265625 264.078125 38.160156 C 263.203125 39.0625 262.765625 40.210938 262.765625 41.601563 C 262.765625 42.324219 262.898438 42.957031 263.160156 43.488281 C 263.414063 44.019531 263.839844 44.496094 264.414063 44.933594 C 265.003906 45.367188 266.121094 45.847656 267.789063 46.386719 C 268.742188 46.691406 269.472656 46.941406 269.972656 47.132813 C 271.78125 47.839844 273.089844 48.734375 273.886719 49.824219 C 274.683594 50.917969 275.078125 52.347656 275.078125 54.121094 C 275.078125 56.832031 274.34375 59.003906 272.867188 60.65625 C 271.394531 62.3125 269.433594 63.136719 266.996094 63.136719 C 264.722656 63.136719 262.878906 62.359375 261.453125 60.796875 C 260.039063 59.234375 259.3125 57.171875 259.273438 54.628906 Z M 259.273438 54.628906 "/>
<g clip-path="url(#clip1)" clip-rule="nonzero">
<path style=" stroke:none;fill-rule:evenodd;fill:rgb(13.719177%,12.156677%,12.547302%);fill-opacity:1;" d="M 302.621094 62.589844 L 290.070313 62.589844 L 290.070313 34.695313 L 292.816406 34.695313 L 292.816406 59.878906 L 302.621094 59.878906 Z M 308.550781 39.050781 L 305.84375 39.050781 L 305.84375 34.695313 L 308.550781 34.695313 Z M 305.84375 41.519531 L 308.546875 41.519531 L 308.546875 62.589844 L 305.84375 62.589844 Z M 329.464844 44.808594 C 330.324219 43.59375 331.386719 42.671875 332.65625 42.039063 C 333.925781 41.402344 335.351563 41.089844 336.914063 41.089844 C 339.78125 41.089844 341.863281 41.945313 343.164063 43.664063 C 344.464844 45.386719 345.117188 48.152344 345.117188 51.960938 L 345.117188 62.589844 L 342.527344 62.589844 L 342.527344 51.398438 C 342.527344 48.613281 342.070313 46.632813 341.148438 45.449219 C 340.234375 44.265625 338.730469 43.679688 336.652344 43.679688 C 335.449219 43.679688 334.394531 43.925781 333.480469 44.417969 C 332.570313 44.910156 331.847656 45.613281 331.308594 46.535156 C 330.988281 47.105469 330.761719 47.765625 330.617188 48.496094 C 330.480469 49.230469 330.40625 50.511719 330.40625 52.339844 L 330.40625 62.589844 L 327.859375 62.589844 L 327.859375 50.785156 C 327.859375 48.359375 327.367188 46.570313 326.378906 45.410156 C 325.398438 44.253906 323.894531 43.679688 321.863281 43.679688 C 320.632813 43.679688 319.5625 43.925781 318.632813 44.417969 C 317.710938 44.910156 316.976563 45.613281 316.441406 46.535156 C 316.109375 47.105469 315.871094 47.765625 315.742188 48.496094 C 315.605469 49.230469 315.539063 50.511719 315.539063 52.339844 L 315.539063 62.589844 L 312.871094 62.589844 L 312.871094 41.519531 L 315.539063 41.519531 L 315.539063 43.90625 C 316.34375 42.972656 317.289063 42.273438 318.382813 41.800781 C 319.476563 41.324219 320.710938 41.089844 322.089844 41.089844 C 323.6875 41.089844 325.144531 41.421875 326.453125 42.097656 C 327.773438 42.769531 328.78125 43.671875 329.464844 44.808594 Z M 352.183594 39.050781 L 349.476563 39.050781 L 349.476563 34.695313 L 352.183594 34.695313 Z M 349.476563 41.519531 L 352.183594 41.519531 L 352.183594 62.589844 L 349.476563 62.589844 Z M 358.390625 62.589844 L 358.390625 44.226563 L 354.386719 44.226563 L 354.386719 41.519531 L 358.390625 41.519531 L 358.390625 34.695313 L 361.097656 34.695313 L 361.097656 41.519531 L 365.097656 41.519531 L 365.097656 44.226563 L 361.097656 44.226563 L 361.097656 62.589844 Z M 387.925781 52.898438 L 368.902344 52.898438 C 369.066406 55.191406 369.902344 57.050781 371.394531 58.464844 C 372.890625 59.878906 374.753906 60.589844 376.988281 60.589844 C 378.578125 60.589844 380.003906 60.175781 381.265625 59.351563 C 382.535156 58.527344 383.507813 57.382813 384.199219 55.917969 L 387.261719 55.917969 C 386.289063 58.253906 384.925781 60.050781 383.175781 61.296875 C 381.414063 62.546875 379.382813 63.175781 377.074219 63.175781 C 374.007813 63.175781 371.414063 62.085938 369.289063 59.898438 C 367.175781 57.714844 366.117188 55.089844 366.117188 52.027344 C 366.117188 48.816406 367.15625 46.167969 369.230469 44.082031 C 371.300781 41.980469 373.953125 40.933594 377.1875 40.933594 C 380.351563 40.933594 382.933594 42.023438 384.933594 44.207031 C 386.925781 46.378906 387.925781 49.214844 387.925781 52.707031 Z M 384.945313 50.542969 C 384.4375 48.207031 383.496094 46.4375 382.128906 45.253906 C 380.761719 44.070313 378.976563 43.484375 376.78125 43.484375 C 374.734375 43.484375 372.996094 44.117188 371.578125 45.390625 C 370.171875 46.660156 369.300781 48.378906 368.980469 50.542969 Z M 408.835938 52.257813 C 408.835938 49.855469 408.039063 47.804688 406.449219 46.109375 C 404.855469 44.410156 402.992188 43.5625 400.839844 43.5625 C 398.617188 43.5625 396.714844 44.371094 395.132813 45.988281 C 393.539063 47.601563 392.753906 49.574219 392.753906 51.910156 C 392.753906 54.378906 393.550781 56.441406 395.140625 58.113281 C 396.726563 59.789063 398.65625 60.628906 400.914063 60.628906 C 402.996094 60.628906 404.839844 59.789063 406.4375 58.113281 C 408.03125 56.441406 408.835938 54.492188 408.835938 52.257813 Z M 408.757813 44.84375 L 408.757813 34.695313 L 411.464844 34.695313 L 411.464844 62.589844 L 408.757813 62.589844 L 408.757813 59.394531 C 407.816406 60.578125 406.640625 61.488281 405.234375 62.148438 C 403.828125 62.808594 402.34375 63.136719 400.769531 63.136719 C 397.726563 63.136719 395.171875 62.0625 393.09375 59.917969 C 391.007813 57.773438 389.96875 55.140625 389.96875 52.027344 C 389.96875 48.933594 390.992188 46.335938 393.054688 44.222656 C 395.105469 42.109375 397.683594 41.050781 400.769531 41.050781 C 402.429688 41.050781 403.9375 41.371094 405.300781 42.019531 C 406.660156 42.664063 407.816406 43.605469 408.757813 44.84375 Z M 408.757813 44.84375 "/>
</g>
<g clip-path="url(#clip2)" clip-rule="nonzero">
<path style=" stroke:none;fill-rule:evenodd;fill:rgb(0%,66.209412%,90.234375%);fill-opacity:1;" d="M 86.90625 87.691406 L 0.015625 87.691406 L 43.460938 -0.00390625 Z M 86.90625 87.691406 "/>
</g>
<path style=" stroke:none;fill-rule:evenodd;fill:rgb(100%,100%,100%);fill-opacity:1;" d="M 41.726563 82.21875 C 41.789063 81.601563 41.769531 80.808594 41.726563 79.800781 L 41.726563 71.683594 C 70.273438 71.683594 67.347656 34.757813 43.914063 34.757813 L 30.304688 34.660156 L 30.304688 84.554688 L 41.726563 84.554688 Z M 41.6875 67.242188 C 41.921875 67.265625 42.15625 67.265625 42.386719 67.253906 C 54.605469 67.734375 54.605469 38.0625 42.386719 38.542969 C 42.15625 38.53125 41.921875 38.53125 41.6875 38.554688 L 41.757813 52.898438 Z M 41.6875 67.242188 "/>
</g>
</svg>
