<svg version="1.1" id="Layer_1" xmlns="http://www.w3.org/2000/svg" xmlns:xlink="http://www.w3.org/1999/xlink" x="0px" y="0px"
	 width="100%" viewBox="0 0 601 601" enable-background="new 0 0 601 601" xml:space="preserve">
<path fill="#E8E9EB" opacity="1.000000" stroke="none" 
	d="
M1.000000,601.000000 
	C1.000000,401.046936 1.000000,201.093887 1.000000,1.070417 
	C201.239334,1.070417 401.478699,1.070417 602.000000,1.070417 
	C602.000000,200.692413 602.000000,400.384979 601.789734,600.658508 
	C601.307861,601.433289 601.114685,601.686768 601.000000,602.000000 
	C401.640839,602.000000 202.281677,602.000000 2.345724,601.787476 
	C1.560454,601.319275 1.304141,601.127625 1.000000,601.000000 
M334.500000,403.964111 
	C378.833740,403.964111 423.167511,403.964111 468.336853,403.964111 
	C411.643829,310.820496 355.548767,218.659256 299.050232,125.835144 
	C242.405807,218.929993 186.395035,310.983398 130.309341,403.160004 
	C131.470566,403.658569 131.757416,403.889557 132.044403,403.889709 
	C199.196259,403.925110 266.348145,403.944366 334.500000,403.964111 
M379.161713,462.222473 
	C377.740448,462.670135 376.347931,463.278259 374.893158,463.538635 
	C367.240204,464.908386 359.025238,459.755890 357.027649,452.415894 
	C354.955597,444.802429 358.979584,437.239227 366.726685,434.533936 
	C372.722565,432.440125 378.112244,434.002747 383.252838,437.450165 
	C384.428375,438.238434 386.317322,437.962891 387.877930,438.176971 
	C380.649536,428.819031 368.318512,427.360138 359.997955,433.403107 
	C352.715363,438.692322 350.214294,449.277344 354.395966,457.111938 
	C359.065857,465.861237 370.125549,469.775635 379.913727,466.143585 
	C387.157288,463.455750 391.320709,456.361420 389.661163,449.183258 
	C385.573730,449.183258 381.421814,449.088135 377.281830,449.267578 
	C376.501221,449.301422 375.768036,450.428680 375.012970,451.051392 
	C375.801208,451.640778 376.555054,452.674194 377.383972,452.738373 
	C380.149994,452.952606 382.942932,452.819550 385.725555,452.819550 
	C386.086914,453.299469 386.448242,453.779358 386.809601,454.259277 
	C384.507080,456.801971 382.204559,459.344666 379.161713,462.222473 
M275.417786,441.916473 
	C268.619202,437.756226 262.099396,438.242371 257.224915,443.272980 
	C252.974930,447.659119 251.767776,455.603790 255.682205,460.208710 
	C258.060547,463.006561 261.894623,465.508270 265.426666,466.123901 
	C269.087311,466.761932 273.172882,464.962067 277.141571,464.215515 
	C277.601471,467.967773 276.020264,471.093903 272.017426,472.376312 
	C267.398010,473.856171 262.906616,473.716797 259.041626,469.994598 
	C257.909393,468.904266 256.156403,468.458527 253.483582,467.109467 
	C257.025024,474.827576 262.791992,477.888763 269.601746,476.893951 
	C276.041412,475.953186 280.608215,472.334351 280.879272,466.723328 
	C281.302490,457.963165 280.991333,449.167511 280.991333,439.217987 
	C278.905243,440.529297 277.461487,441.436829 275.417786,441.916473 
M497.665710,463.199036 
	C502.997833,456.269775 503.175537,449.329346 498.162872,443.786530 
	C492.978760,438.054199 486.435730,437.709473 479.022919,442.428528 
	C477.545044,441.455688 476.165863,440.547821 473.966461,439.099976 
	C473.966461,446.383728 473.966461,452.181671 473.966461,457.979614 
	C473.966461,463.921753 473.966461,469.863922 473.966461,475.966583 
	C475.270599,475.907898 476.754395,475.979340 476.779663,475.819794 
	C477.399323,471.907257 477.864105,467.970215 478.357605,464.029297 
	C487.850464,468.320740 490.721985,468.270081 497.665710,463.199036 
M303.460236,453.707001 
	C306.904266,453.707001 310.348328,453.707001 313.715179,453.707001 
	C313.981537,452.723999 314.234222,452.254211 314.213715,451.796661 
	C313.966034,446.281708 311.225311,442.334686 306.235413,440.195648 
	C301.108551,437.997894 296.133514,438.564209 291.791107,442.253540 
	C287.118683,446.223145 285.950439,451.466339 287.370575,457.145477 
	C288.666016,462.326019 291.995483,466.040619 297.476990,466.923218 
	C303.180603,467.841553 308.484497,466.862152 311.989105,461.630890 
	C312.527588,460.826996 312.169891,459.422729 312.226685,458.296143 
	C311.238831,458.533936 310.118073,458.557220 309.297882,459.065521 
	C308.339844,459.659271 307.754761,460.838257 306.814606,461.480438 
	C303.435791,463.788208 299.755341,464.508301 296.050629,462.447266 
	C292.888031,460.687836 290.811157,458.102478 291.375214,453.706360 
	C295.224640,453.706360 298.854431,453.706360 303.460236,453.707001 
M234.322800,439.008942 
	C227.194824,439.427094 222.038620,443.058197 220.248795,448.920197 
	C218.583221,454.375305 220.466125,460.879364 224.922516,464.232269 
	C231.329483,469.052856 237.598053,467.825653 243.052048,463.666901 
	C244.144440,464.794220 245.026535,465.704529 245.908600,466.614838 
	C246.502914,465.450897 247.580704,464.299469 247.611191,463.120941 
	C247.779144,456.629852 247.770325,450.130310 247.620422,443.638336 
	C247.592377,442.424072 246.647644,441.230957 246.125977,440.028107 
	C245.081970,440.905273 244.037964,441.782440 243.244308,442.449280 
	C240.564835,441.326843 237.857086,440.192535 234.322800,439.008942 
M101.303413,456.448181 
	C101.304756,458.772766 101.085884,461.127655 101.400070,463.409149 
	C101.557808,464.554504 102.685448,465.566284 103.374458,466.638489 
	C104.020180,465.533051 105.163826,464.453552 105.222939,463.317596 
	C105.444473,459.059723 105.311630,454.783447 105.311630,450.588867 
	C109.958611,450.044769 114.152443,449.993500 118.096405,448.974823 
	C122.517174,447.832977 124.136978,444.218872 124.047798,439.762817 
	C123.959564,435.354279 121.666389,431.984985 117.652138,431.390869 
	C112.400215,430.613586 106.946411,431.200378 101.681450,431.200378 
	C101.512535,431.908844 101.370483,432.229340 101.369186,432.550385 
	C101.338211,440.187683 101.322350,447.825012 101.303413,456.448181 
M133.194199,463.348145 
	C140.131332,468.556732 144.471542,468.591461 152.162125,463.821472 
	C153.204071,464.812714 154.132797,465.696259 155.061539,466.579834 
	C155.701828,465.475281 156.872833,464.382141 156.896805,463.264374 
	C157.060242,455.645081 156.982391,448.020569 156.982391,438.834106 
	C154.627335,440.517120 153.270538,441.486725 151.812866,442.528412 
	C144.611465,437.586029 138.294632,437.808350 132.909409,443.409576 
	C127.701057,448.826813 127.628815,455.964508 133.194199,463.348145 
M424.364777,467.145294 
	C427.617249,465.735199 431.479980,465.009308 433.991852,462.768860 
	C438.831543,458.452148 439.135590,450.726288 435.599182,445.377258 
	C431.986725,439.913055 425.082642,437.719940 418.889252,440.069122 
	C412.987366,442.307770 409.300201,448.822632 410.229004,455.370880 
	C411.178162,462.062592 415.998779,466.303070 424.364777,467.145294 
M207.823944,443.220795 
	C205.479675,445.180756 203.135422,447.140747 199.982010,449.777222 
	C199.982010,443.427948 199.891479,438.166687 200.015518,432.910522 
	C200.091446,429.692963 198.795120,429.177460 196.017166,430.434875 
	C196.017166,441.317108 195.950317,452.125977 196.109787,462.931519 
	C196.127808,464.152588 197.421890,465.354858 198.124252,466.565826 
	C198.744003,465.272675 199.702881,464.029907 199.904221,462.674591 
	C200.208145,460.628540 199.983490,458.503937 199.983490,455.247437 
	C203.256317,458.135864 205.607162,460.372986 208.131790,462.392853 
	C210.641693,464.400940 212.618027,467.962128 217.454575,465.876587 
	C212.433578,461.284271 207.745819,456.996735 202.896103,452.561035 
	C207.610931,448.401337 211.976578,444.549713 216.342209,440.698059 
	C216.014282,440.198822 215.686340,439.699554 215.358414,439.200317 
	C213.033905,440.381104 210.709412,441.561920 207.823944,443.220795 
M189.097916,460.342621 
	C187.589447,460.687317 185.829773,460.647034 184.613983,461.440277 
	C177.647369,465.985596 168.531311,462.969971 167.050018,455.448334 
	C166.159088,450.924408 167.454742,447.058807 171.412506,444.641083 
	C175.729919,442.003632 180.180420,442.180450 184.561996,444.977600 
	C185.951797,445.864868 187.747726,446.115936 189.357803,446.658142 
	C185.206604,438.545074 175.830261,436.926178 168.758514,441.801819 
	C164.080582,445.027039 161.829681,450.990631 163.101074,456.790680 
	C164.161682,461.629028 169.173630,466.187866 174.299667,466.976776 
	C181.460968,468.078918 186.665649,465.991394 189.097916,460.342621 
M452.897064,463.229279 
	C448.587158,462.163788 447.206299,458.983215 447.137054,455.006409 
	C447.050903,450.058746 447.116364,445.108459 447.116364,440.159271 
	C446.725739,439.966461 446.335114,439.773651 445.944458,439.580841 
	C445.129944,440.412811 443.620605,441.238586 443.613098,442.077820 
	C443.562592,447.714539 443.408997,453.407928 444.118439,458.977234 
	C444.791595,464.261841 449.165405,467.103424 455.012970,467.119629 
	C460.980255,467.136169 465.245880,464.439453 465.981750,459.124695 
	C466.751099,453.567993 466.697632,447.879181 466.673126,442.249573 
	C466.669312,441.366791 464.911499,440.491669 463.964691,439.613007 
	C462.972351,445.123505 463.022522,449.596954 462.960754,454.068878 
	C462.864502,461.033478 460.720093,463.171295 452.897064,463.229279 
M323.442078,439.705353 
	C317.997284,443.404358 317.390747,448.470184 322.025208,452.189911 
	C323.305695,453.217621 324.780334,454.024628 326.229492,454.816498 
	C328.890686,456.270538 331.423737,458.093597 329.471558,461.375519 
	C327.703583,464.347717 324.879120,463.754272 322.036133,462.336578 
	C321.007599,461.823730 319.440887,462.390076 318.119781,462.463928 
	C318.134766,463.007355 318.149780,463.550781 318.164764,464.094208 
	C319.402130,464.881012 320.560944,465.851135 321.891174,466.421204 
	C326.350006,468.332062 331.098541,466.805939 333.101349,462.959320 
	C335.152985,459.018890 333.919159,455.269867 329.577911,452.399658 
	C328.476288,451.671326 326.968018,451.312103 326.226349,450.340607 
	C324.977203,448.704376 323.001282,446.321472 323.452820,444.952393 
	C324.474335,441.855316 327.178619,442.856293 329.660034,443.909882 
	C330.768097,444.380371 332.290985,443.873962 333.625610,443.810913 
	C333.679810,442.974792 333.734039,442.138672 333.788239,441.302551 
	C330.580627,440.669708 327.373016,440.036865 323.442078,439.705353 
M395.872650,466.198395 
	C398.392456,467.101410 399.098663,465.987366 399.070740,463.584656 
	C399.020630,459.275177 398.895752,454.937103 399.310913,450.660370 
	C399.688568,446.770111 400.803406,443.097229 405.940338,442.890991 
	C406.866394,442.853851 407.743439,441.595306 408.643097,440.900665 
	C408.491364,440.453430 408.339630,440.006226 408.187897,439.559021 
	C403.964905,439.998596 399.741913,440.438202 395.316833,440.898834 
	C395.316833,449.017334 395.316833,457.298187 395.872650,466.198395 
z"/>
<path fill="#F4F4F4" opacity="1.000000" stroke="none" 
	d="
M1.000000,601.500000 
	C1.304141,601.127625 1.560454,601.319275 1.884470,601.787476 
	C1.666667,602.000000 1.333333,602.000000 1.000000,601.500000 
z"/>
<path fill="#F4F4F4" opacity="1.000000" stroke="none" 
	d="
M601.500000,602.000000 
	C601.114685,601.686768 601.307861,601.433289 601.789734,601.119751 
	C602.000000,601.333313 602.000000,601.666687 601.500000,602.000000 
z"/>
<path fill="#0190D5" opacity="1.000000" stroke="none" 
	d="
M334.000000,403.964111 
	C266.348145,403.944366 199.196259,403.925110 132.044403,403.889709 
	C131.757416,403.889557 131.470566,403.658569 130.309341,403.160004 
	C186.395035,310.983398 242.405807,218.929993 299.050232,125.835144 
	C355.548767,218.659256 411.643829,310.820496 468.336853,403.964111 
	C423.167511,403.964111 378.833740,403.964111 334.000000,403.964111 
M252.002594,232.629410 
	C252.002594,284.208160 252.002594,335.786896 252.002594,387.524933 
	C266.987488,387.524933 281.393066,387.524933 296.466980,387.524933 
	C296.466980,373.883759 296.466980,360.505859 296.466980,346.805634 
	C301.281372,346.805634 305.433105,346.921021 309.576569,346.785461 
	C326.523041,346.231049 342.547516,342.170654 354.671173,329.820038 
	C372.393951,311.765411 375.239319,289.775970 367.403229,266.504425 
	C359.357971,242.611847 339.177338,231.673355 315.608948,230.222687 
	C295.695465,228.996964 275.660431,229.709702 255.679199,229.708420 
	C254.458145,229.708344 253.237015,230.974091 252.002594,232.629410 
z"/>
<path fill="#464749" opacity="1.000000" stroke="none" 
	d="
M379.531891,462.054932 
	C382.204559,459.344666 384.507080,456.801971 386.809601,454.259277 
	C386.448242,453.779358 386.086914,453.299469 385.725555,452.819550 
	C382.942932,452.819550 380.149994,452.952606 377.383972,452.738373 
	C376.555054,452.674194 375.801208,451.640778 375.012970,451.051392 
	C375.768036,450.428680 376.501221,449.301422 377.281830,449.267578 
	C381.421814,449.088135 385.573730,449.183258 389.661163,449.183258 
	C391.320709,456.361420 387.157288,463.455750 379.913727,466.143585 
	C370.125549,469.775635 359.065857,465.861237 354.395966,457.111938 
	C350.214294,449.277344 352.715363,438.692322 359.997955,433.403107 
	C368.318512,427.360138 380.649536,428.819031 387.877930,438.176971 
	C386.317322,437.962891 384.428375,438.238434 383.252838,437.450165 
	C378.112244,434.002747 372.722565,432.440125 366.726685,434.533936 
	C358.979584,437.239227 354.955597,444.802429 357.027649,452.415894 
	C359.025238,459.755890 367.240204,464.908386 374.893158,463.538635 
	C376.347931,463.278259 377.740448,462.670135 379.531891,462.054932 
z"/>
<path fill="#0B94D6" opacity="1.000000" stroke="none" 
	d="
M275.717743,442.130432 
	C277.461487,441.436829 278.905243,440.529297 280.991333,439.217987 
	C280.991333,449.167511 281.302490,457.963165 280.879272,466.723328 
	C280.608215,472.334351 276.041412,475.953186 269.601746,476.893951 
	C262.791992,477.888763 257.025024,474.827576 253.483582,467.109467 
	C256.156403,468.458527 257.909393,468.904266 259.041626,469.994598 
	C262.906616,473.716797 267.398010,473.856171 272.017426,472.376312 
	C276.020264,471.093903 277.601471,467.967773 277.141571,464.215515 
	C273.172882,464.962067 269.087311,466.761932 265.426666,466.123901 
	C261.894623,465.508270 258.060547,463.006561 255.682205,460.208710 
	C251.767776,455.603790 252.974930,447.659119 257.224915,443.272980 
	C262.099396,438.242371 268.619202,437.756226 275.717743,442.130432 
M277.477631,454.898102 
	C278.200531,450.558350 276.789642,447.008575 273.201691,444.540375 
	C268.329834,441.188934 261.598969,442.971069 258.638062,448.218048 
	C255.704727,453.416168 257.645020,459.540039 263.011749,462.021820 
	C268.829834,464.712372 274.629028,462.106384 277.477631,454.898102 
z"/>
<path fill="#454648" opacity="1.000000" stroke="none" 
	d="
M497.398041,463.454651 
	C490.721985,468.270081 487.850464,468.320740 478.357605,464.029297 
	C477.864105,467.970215 477.399323,471.907257 476.779663,475.819794 
	C476.754395,475.979340 475.270599,475.907898 473.966461,475.966583 
	C473.966461,469.863922 473.966461,463.921753 473.966461,457.979614 
	C473.966461,452.181671 473.966461,446.383728 473.966461,439.099976 
	C476.165863,440.547821 477.545044,441.455688 479.022919,442.428528 
	C486.435730,437.709473 492.978760,438.054199 498.162872,443.786530 
	C503.175537,449.329346 502.997833,456.269775 497.398041,463.454651 
M479.311066,447.162842 
	C476.717041,451.646271 476.297302,456.539246 480.093475,460.030548 
	C482.432220,462.181427 486.608307,463.458466 489.838684,463.250549 
	C494.603394,462.943909 497.299377,459.064209 497.877869,454.357941 
	C498.437012,449.808777 496.517059,446.111084 492.397980,444.029053 
	C487.687714,441.648285 483.374176,442.478455 479.311066,447.162842 
z"/>
<path fill="#1497D7" opacity="1.000000" stroke="none" 
	d="
M302.972229,453.706665 
	C298.854431,453.706360 295.224640,453.706360 291.375214,453.706360 
	C290.811157,458.102478 292.888031,460.687836 296.050629,462.447266 
	C299.755341,464.508301 303.435791,463.788208 306.814606,461.480438 
	C307.754761,460.838257 308.339844,459.659271 309.297882,459.065521 
	C310.118073,458.557220 311.238831,458.533936 312.226685,458.296143 
	C312.169891,459.422729 312.527588,460.826996 311.989105,461.630890 
	C308.484497,466.862152 303.180603,467.841553 297.476990,466.923218 
	C291.995483,466.040619 288.666016,462.326019 287.370575,457.145477 
	C285.950439,451.466339 287.118683,446.223145 291.791107,442.253540 
	C296.133514,438.564209 301.108551,437.997894 306.235413,440.195648 
	C311.225311,442.334686 313.966034,446.281708 314.213715,451.796661 
	C314.234222,452.254211 313.981537,452.723999 313.715179,453.707001 
	C310.348328,453.707001 306.904266,453.707001 302.972229,453.706665 
M297.320312,443.344757 
	C295.304688,445.150391 293.289032,446.955994 291.273407,448.761597 
	C291.586731,449.161438 291.900085,449.561279 292.213409,449.961121 
	C297.996185,449.961121 303.778961,449.961121 309.691956,449.961121 
	C307.402374,444.012726 305.358582,442.854980 297.320312,443.344757 
z"/>
<path fill="#1195D6" opacity="1.000000" stroke="none" 
	d="
M234.736053,439.033600 
	C237.857086,440.192535 240.564835,441.326843 243.244308,442.449280 
	C244.037964,441.782440 245.081970,440.905273 246.125961,440.028076 
	C246.647644,441.230957 247.592377,442.424072 247.620422,443.638336 
	C247.770325,450.130310 247.779144,456.629852 247.611191,463.120941 
	C247.580704,464.299469 246.502914,465.450897 245.908600,466.614838 
	C245.026535,465.704529 244.144440,464.794220 243.052048,463.666901 
	C237.598053,467.825653 231.329483,469.052856 224.922516,464.232269 
	C220.466125,460.879364 218.583221,454.375305 220.248795,448.920197 
	C222.038620,443.058197 227.194824,439.427094 234.736053,439.033600 
M224.391205,449.391266 
	C222.700043,458.397247 228.144394,465.139923 235.727127,463.430481 
	C240.681625,462.313568 243.865555,458.506378 243.975815,453.567047 
	C244.083344,448.749451 241.172028,444.511749 236.885300,443.246216 
	C232.109146,441.836182 228.030838,443.687469 224.391205,449.391266 
z"/>
<path fill="#1195D6" opacity="1.000000" stroke="none" 
	d="
M101.303574,455.955261 
	C101.322350,447.825012 101.338211,440.187683 101.369186,432.550385 
	C101.370483,432.229340 101.512535,431.908844 101.681450,431.200378 
	C106.946411,431.200378 112.400215,430.613586 117.652138,431.390869 
	C121.666389,431.984985 123.959564,435.354279 124.047798,439.762817 
	C124.136978,444.218872 122.517174,447.832977 118.096405,448.974823 
	C114.152443,449.993500 109.958611,450.044769 105.311630,450.588867 
	C105.311630,454.783447 105.444473,459.059723 105.222939,463.317596 
	C105.163826,464.453552 104.020180,465.533051 103.374451,466.638489 
	C102.685448,465.566284 101.557808,464.554504 101.400070,463.409149 
	C101.085884,461.127655 101.304756,458.772766 101.303574,455.955261 
M119.827232,438.887115 
	C117.052803,434.433319 112.250603,433.126709 105.538528,435.025757 
	C105.538528,438.576691 105.538528,442.135559 105.538528,446.012512 
	C108.363419,446.012512 110.838921,446.074005 113.310257,445.998627 
	C117.381523,445.874420 119.906952,444.046448 119.827232,438.887115 
z"/>
<path fill="#0894D6" opacity="1.000000" stroke="none" 
	d="
M132.953766,463.061798 
	C127.628815,455.964508 127.701057,448.826813 132.909409,443.409576 
	C138.294632,437.808350 144.611465,437.586029 151.812866,442.528412 
	C153.270538,441.486725 154.627335,440.517120 156.982391,438.834106 
	C156.982391,448.020569 157.060242,455.645081 156.896805,463.264374 
	C156.872833,464.382141 155.701828,465.475281 155.061539,466.579834 
	C154.132797,465.696259 153.204071,464.812714 152.162125,463.821472 
	C144.471542,468.591461 140.131332,468.556732 132.953766,463.061798 
M146.367996,463.027557 
	C152.812424,459.725067 154.868179,454.798035 152.268417,448.886047 
	C150.148544,444.065338 144.929291,441.693359 139.926865,443.277222 
	C135.067352,444.815796 131.945541,450.501038 133.144409,455.628906 
	C134.432648,461.138977 139.532501,464.252899 146.367996,463.027557 
z"/>
<path fill="#47484A" opacity="1.000000" stroke="none" 
	d="
M423.989319,467.145081 
	C415.998779,466.303070 411.178162,462.062592 410.229004,455.370880 
	C409.300201,448.822632 412.987366,442.307770 418.889252,440.069122 
	C425.082642,437.719940 431.986725,439.913055 435.599182,445.377258 
	C439.135590,450.726288 438.831543,458.452148 433.991852,462.768860 
	C431.479980,465.009308 427.617249,465.735199 423.989319,467.145081 
M419.032410,444.169434 
	C411.826385,448.201782 412.089050,459.229950 419.970306,462.824554 
	C423.995758,464.660522 428.903595,463.442169 431.725037,460.056519 
	C434.650635,456.545746 434.934418,451.312042 432.404449,447.525360 
	C429.517090,443.203613 425.643005,442.071747 419.032410,444.169434 
z"/>
<path fill="#0894D6" opacity="1.000000" stroke="none" 
	d="
M208.104431,442.981750 
	C210.709412,441.561920 213.033905,440.381104 215.358414,439.200317 
	C215.686340,439.699554 216.014282,440.198822 216.342209,440.698059 
	C211.976578,444.549713 207.610931,448.401337 202.896103,452.561035 
	C207.745819,456.996735 212.433578,461.284271 217.454575,465.876587 
	C212.618027,467.962128 210.641693,464.400940 208.131790,462.392853 
	C205.607162,460.372986 203.256317,458.135864 199.983490,455.247437 
	C199.983490,458.503937 200.208145,460.628540 199.904221,462.674591 
	C199.702881,464.029907 198.744003,465.272675 198.124252,466.565826 
	C197.421890,465.354858 196.127808,464.152588 196.109787,462.931519 
	C195.950317,452.125977 196.017166,441.317108 196.017166,430.434875 
	C198.795120,429.177460 200.091446,429.692963 200.015518,432.910522 
	C199.891479,438.166687 199.982010,443.427948 199.982010,449.777222 
	C203.135422,447.140747 205.479675,445.180756 208.104431,442.981750 
z"/>
<path fill="#0B94D6" opacity="1.000000" stroke="none" 
	d="
M189.306213,460.608459 
	C186.665649,465.991394 181.460968,468.078918 174.299667,466.976776 
	C169.173630,466.187866 164.161682,461.629028 163.101074,456.790680 
	C161.829681,450.990631 164.080582,445.027039 168.758514,441.801819 
	C175.830261,436.926178 185.206604,438.545074 189.357803,446.658142 
	C187.747726,446.115936 185.951797,445.864868 184.561996,444.977600 
	C180.180420,442.180450 175.729919,442.003632 171.412506,444.641083 
	C167.454742,447.058807 166.159088,450.924408 167.050018,455.448334 
	C168.531311,462.969971 177.647369,465.985596 184.613983,461.440277 
	C185.829773,460.647034 187.589447,460.687317 189.306213,460.608459 
z"/>
<path fill="#434345" opacity="1.000000" stroke="none" 
	d="
M453.311279,463.329651 
	C460.720093,463.171295 462.864502,461.033478 462.960754,454.068878 
	C463.022522,449.596954 462.972351,445.123505 463.964691,439.613007 
	C464.911499,440.491669 466.669312,441.366791 466.673126,442.249573 
	C466.697632,447.879181 466.751099,453.567993 465.981750,459.124695 
	C465.245880,464.439453 460.980255,467.136169 455.012970,467.119629 
	C449.165405,467.103424 444.791595,464.261841 444.118439,458.977234 
	C443.408997,453.407928 443.562592,447.714539 443.613098,442.077820 
	C443.620605,441.238586 445.129944,440.412811 445.944458,439.580841 
	C446.335114,439.773651 446.725739,439.966461 447.116364,440.159271 
	C447.116364,445.108459 447.050903,450.058746 447.137054,455.006409 
	C447.206299,458.983215 448.587158,462.163788 453.311279,463.329651 
z"/>
<path fill="#0894D6" opacity="1.000000" stroke="none" 
	d="
M323.803741,439.554688 
	C327.373016,440.036865 330.580627,440.669708 333.788239,441.302551 
	C333.734039,442.138672 333.679810,442.974792 333.625610,443.810913 
	C332.290985,443.873962 330.768097,444.380371 329.660034,443.909882 
	C327.178619,442.856293 324.474335,441.855316 323.452820,444.952393 
	C323.001282,446.321472 324.977203,448.704376 326.226349,450.340607 
	C326.968018,451.312103 328.476288,451.671326 329.577911,452.399658 
	C333.919159,455.269867 335.152985,459.018890 333.101349,462.959320 
	C331.098541,466.805939 326.350006,468.332062 321.891174,466.421204 
	C320.560944,465.851135 319.402130,464.881012 318.164764,464.094208 
	C318.149780,463.550781 318.134766,463.007355 318.119781,462.463928 
	C319.440887,462.390076 321.007599,461.823730 322.036133,462.336578 
	C324.879120,463.754272 327.703583,464.347717 329.471558,461.375519 
	C331.423737,458.093597 328.890686,456.270538 326.229492,454.816498 
	C324.780334,454.024628 323.305695,453.217621 322.025208,452.189911 
	C317.390747,448.470184 317.997284,443.404358 323.803741,439.554688 
z"/>
<path fill="#47484A" opacity="1.000000" stroke="none" 
	d="
M395.594727,465.888733 
	C395.316833,457.298187 395.316833,449.017334 395.316833,440.898834 
	C399.741913,440.438202 403.964905,439.998596 408.187897,439.559021 
	C408.339630,440.006226 408.491364,440.453430 408.643097,440.900665 
	C407.743439,441.595306 406.866394,442.853851 405.940338,442.890991 
	C400.803406,443.097229 399.688568,446.770111 399.310913,450.660370 
	C398.895752,454.937103 399.020630,459.275177 399.070740,463.584656 
	C399.098663,465.987366 398.392456,467.101410 395.594727,465.888733 
z"/>
<path fill="#FEFEFF" opacity="1.000000" stroke="none" 
	d="
M252.009262,232.140137 
	C253.237015,230.974091 254.458145,229.708344 255.679199,229.708420 
	C275.660431,229.709702 295.695465,228.996964 315.608948,230.222687 
	C339.177338,231.673355 359.357971,242.611847 367.403229,266.504425 
	C375.239319,289.775970 372.393951,311.765411 354.671173,329.820038 
	C342.547516,342.170654 326.523041,346.231049 309.576569,346.785461 
	C305.433105,346.921021 301.281372,346.805634 296.466980,346.805634 
	C296.466980,360.505859 296.466980,373.883759 296.466980,387.524933 
	C281.393066,387.524933 266.987488,387.524933 252.002594,387.524933 
	C252.002594,335.786896 252.002594,284.208160 252.009262,232.140137 
M296.033783,247.678909 
	C296.033783,276.742584 296.033783,305.806244 296.033783,335.510925 
	C308.976593,333.448914 317.677032,326.981812 322.713776,316.693390 
	C331.934570,297.858124 331.619354,278.261566 323.465881,259.238708 
	C318.638092,247.974991 309.029327,241.890656 296.741943,240.544174 
	C296.409668,241.172501 296.138428,241.453842 296.126984,241.745377 
	C296.061707,243.409180 296.058228,245.075409 296.033783,247.678909 
z"/>
<path fill="#E3E7EA" opacity="1.000000" stroke="none" 
	d="
M277.358337,455.263306 
	C274.629028,462.106384 268.829834,464.712372 263.011749,462.021820 
	C257.645020,459.540039 255.704727,453.416168 258.638062,448.218048 
	C261.598969,442.971069 268.329834,441.188934 273.201691,444.540375 
	C276.789642,447.008575 278.200531,450.558350 277.358337,455.263306 
z"/>
<path fill="#E3E4E6" opacity="1.000000" stroke="none" 
	d="
M479.574066,446.858521 
	C483.374176,442.478455 487.687714,441.648285 492.397980,444.029053 
	C496.517059,446.111084 498.437012,449.808777 497.877869,454.357941 
	C497.299377,459.064209 494.603394,462.943909 489.838684,463.250549 
	C486.608307,463.458466 482.432220,462.181427 480.093475,460.030548 
	C476.297302,456.539246 476.717041,451.646271 479.574066,446.858521 
z"/>
<path fill="#E3E7EA" opacity="1.000000" stroke="none" 
	d="
M297.709686,443.233459 
	C305.358582,442.854980 307.402374,444.012726 309.691956,449.961121 
	C303.778961,449.961121 297.996185,449.961121 292.213409,449.961121 
	C291.900085,449.561279 291.586731,449.161438 291.273407,448.761597 
	C293.289032,446.955994 295.304688,445.150391 297.709686,443.233459 
z"/>
<path fill="#E3E7EA" opacity="1.000000" stroke="none" 
	d="
M224.611221,449.054626 
	C228.030838,443.687469 232.109146,441.836182 236.885300,443.246216 
	C241.172028,444.511749 244.083344,448.749451 243.975815,453.567047 
	C243.865555,458.506378 240.681625,462.313568 235.727127,463.430481 
	C228.144394,465.139923 222.700043,458.397247 224.611221,449.054626 
z"/>
<path fill="#DDE4E9" opacity="1.000000" stroke="none" 
	d="
M119.892044,439.275208 
	C119.906952,444.046448 117.381523,445.874420 113.310257,445.998627 
	C110.838921,446.074005 108.363419,446.012512 105.538528,446.012512 
	C105.538528,442.135559 105.538528,438.576691 105.538528,435.025757 
	C112.250603,433.126709 117.052803,434.433319 119.892044,439.275208 
z"/>
<path fill="#E3E7EA" opacity="1.000000" stroke="none" 
	d="
M145.999069,463.140045 
	C139.532501,464.252899 134.432648,461.138977 133.144409,455.628906 
	C131.945541,450.501038 135.067352,444.815796 139.926865,443.277222 
	C144.929291,441.693359 150.148544,444.065338 152.268417,448.886047 
	C154.868179,454.798035 152.812424,459.725067 145.999069,463.140045 
z"/>
<path fill="#E3E4E6" opacity="1.000000" stroke="none" 
	d="
M419.392395,443.999176 
	C425.643005,442.071747 429.517090,443.203613 432.404449,447.525360 
	C434.934418,451.312042 434.650635,456.545746 431.725037,460.056519 
	C428.903595,463.442169 423.995758,464.660522 419.970306,462.824554 
	C412.089050,459.229950 411.826385,448.201782 419.392395,443.999176 
z"/>
<path fill="#0391D6" opacity="1.000000" stroke="none" 
	d="
M296.033783,247.209869 
	C296.058228,245.075409 296.061707,243.409180 296.126984,241.745377 
	C296.138428,241.453842 296.409668,241.172501 296.741943,240.544174 
	C309.029327,241.890656 318.638092,247.974991 323.465881,259.238708 
	C331.619354,278.261566 331.934570,297.858124 322.713776,316.693390 
	C317.677032,326.981812 308.976593,333.448914 296.033783,335.510925 
	C296.033783,305.806244 296.033783,276.742584 296.033783,247.209869 
z"/>
</svg>